<svg xmlns="http://www.w3.org/2000/svg" viewBox="0 0 735 813.14"><defs><style>.cls-1{fill:#00536d;}.cls-2{fill:#2790d1;}.cls-3{fill:#b9d686;}.cls-4{fill:#ccd385;}.cls-5{fill:#d3c185;}.cls-6{fill:#d3b485;}.cls-7,.cls-9{fill:#fff;}.cls-8{fill:#191919;opacity:0.2;}.cls-9{opacity:0.35;}</style></defs><title>Recurso 3</title><g id="Capa_2" data-name="Capa 2"><g id="Capa_2-2" data-name="Capa 2"><g id="Capa_5" data-name="Capa 5"><path class="cls-1" d="M281,776.42l-.41.3C264.06,788.1,248,797,232.91,803.09a7.5,7.5,0,0,1-5.64-13.9,222.43,222.43,0,0,0,34.38-18Q271.27,774.09,281,776.42Z"/><path class="cls-1" d="M609.64,138.58Q617,145,624,151.88c-.7,11.19-1.9,22.89-3.58,35a7.51,7.51,0,0,1-7.42,6.47,7.37,7.37,0,0,1-1-.07,7.5,7.5,0,0,1-6.4-8.47A427.93,427.93,0,0,0,609.64,138.58Z"/><path class="cls-1" d="M624.76,133.11q-.07,6.6-.43,13.49-7.12-6.84-14.58-13.24c0-.15,0-.29,0-.44a7.5,7.5,0,0,1,15,.19Z"/></g><g id="Capa_4" data-name="Capa 4"><circle class="cls-2" cx="367.5" cy="415.02" r="367.5"/><circle class="cls-2" cx="367.5" cy="415.02" r="367.5"/></g><g id="Capa_3" data-name="Capa 3"><path class="cls-3" d="M192.56,659.5c-.17-.54-.56-6-4.56-7s-6.42-1.2-7.71-4.1-5.21-11-2.75-14.93,1.46-8,5.46-10,12-1,19-2,12,2,16,5,11-1,10,4,0,13,0,19,9,13,0,16-17-9-22-7S194.12,664.47,192.56,659.5Z"/><path class="cls-3" d="M269,671.52c-14.14,0-18,1-17-6s13-11,6-19-9-1-9-10,1-10,3-13,4-6.08,5.48-6.54,3.52-1.46,8.52-.46,9,0,12,0,11,2,19-3,22-10,22-11,8-4,16-12,13-7,16-4,14-9,12-14,0,1-2-5-5.88-6.53-6.94-3.76-4.06,3.76-3.06-1.24-3-2,0-7,1-9,4-8,4-3,6,0,4,6,5,3,1-4,0-7,1-6-2-8-6.49,9.34-6.75-4.33S360,512.52,369,513.52s9.17,5.76,19.59,2.38S400,514.52,409,511.52s11.58-5.93,12.29-8,4.62-8.84-.29-6c-7,4-3-5,3-5s6.73-4,10.86-1,1.14,6,4.14,8,11-3,14-4,6-1,6-8-3-10,0-12,5-5,7-8,2-5,6-7,4-4,8-5,4-2,7,0,7,7,11,9,14.34-3.94,19.67-1.47,8.33,6.47,9.33,9.47,10,3,14,6,8.86,1,14.43,7,6.14,1,10.35,10.5,1.22,4.51,5.22,18.51,7,6,14,19,19,0,11,18-15,16-14,25,7.19,13.52,1.1,26.26-4.72,16.35-11.91,18.55S561,624.52,557,633.52s-1,10-7,18-9,12-15,17-11,12-17,17-30,10-32,14a48.75,48.75,0,0,0-4,11c-1,4-1,4-7,13s-6.08,3.07-10,13.54,0,18.46-5,21.46-8,5-11-2-1-10-4-15-1-10-4-16,0-6-9-12-11.82-11-21.41-16-13.59-9-18.59-9-7-2-13-2-9-4-17,0-7,6-13,8-4,7-17-6-10-14-15-15-9-4-15-3a126.47,126.47,0,0,1-16,1Z"/><path class="cls-3" d="M607,612.52c-2.24,0-12,0-12-1s-1-2,2-4,4-6,5-7,1-3,1-6-1-4,0-6,0-3,1-5a25.44,25.44,0,0,0,2-7v-4c0-1,0-4,2-4s2,1,5,0,4-2,6-2,4-2,5-3,0-1,1-2a6.89,6.89,0,0,0,1.45-2.09c.55-.91.55,6.09,1.55-1.91s7-4,8-1,3,2,3,4-1,3-1,5-3,3,1,8,4,4,4,6-2,6-2,7,2,5,3,5,2-1,3,1,3,3,4,5,0,1,1,3a7.56,7.56,0,0,1,1,4c0,1,1,3-1,3s4.68-2.4-4.16.3-11.84-.3-11.84-1.3a22.69,22.69,0,0,1,1-4s-1-2-4,0-5,4-5,5a4,4,0,0,1-2,4,7.56,7.56,0,0,1-4,1c-1,0-1,1-5,0S608,612.52,607,612.52Z"/><path class="cls-3" d="M501,435.52c-11.09-2.22-11.65,2.05-11.65,2.05L489,422.52s8-5,10-5,6,0,7-7,3-9,0-12-8.58-6-7.29-9-5.71-4,2.29-12,10-6,10-11-1-12-5-13-4.39-3.55-4.19-8.28,1.19.28.19-9.72-7-12,0-17,12-8,12-8,2,0,15,2,9-6,23,0,20.4,0,28.7,2,11.3-8,18.3,3,9,12,10,18-18,4,4,10,35.88,1,36.44,2,8.56-8,13.56,3-8,9,8,15,26,2,35,9,14,11,19,15,12,4,5,14-9,13-16,23-12,11-12,20,.78,13.74-7.11,23.87-11.08,12-14,18.07-.9,12.06-7.9,21.06-18.16,11.23-23.58,16.62S640,544.52,636,546.52s-9,7-17,5-10.24.23-10.24.23-9.23,2.67-5.49-3.28a85.82,85.82,0,0,0,7.73-15c1-3,1-8-2-9s-5-1-7-2-10.39,6.21-9.2-5.39-.8-12.61.2-17.61-8-17-8-17-2,0-3-4-5-10-7-12-12-11-14-12-5-3-9-4-5-11-14-4-5.76,13.52-10.88,5.76S521,438.52,521,438.52s-4-8-6-7S506,436.52,501,435.52Z"/><path class="cls-3" d="M457.41,232.63c-4.88,5.42-12.41,5.89-12.41,5.89s-4,7,0,8,7.81-.18,12.41,2.91,10.1,8.41,12.35,10.25,10.24.84,12.24,3.84,8,8,7,11,0-1,0,5,7,6,8,10-3,7,2,9,5.47,2.83,11.24,1.41a96.25,96.25,0,0,1,21-2.44c6.78,0,10.78,1,14.78-2a27.4,27.4,0,0,1,7-4c2-1,2-1,7-2s13,3,15,5,1,3,5,4,14,2,19,4,7-6,12,0,2.27,9.87,4.64,10.44,2.51.56,11.94,6.06,13.8,13,22.11,13.75,13.7-5.92,17-2.08,1.3,9.83,4.3,12.83,3,5,12,9,7,13,12,6,6-5,3-13-2-2.48-4-9.74-4-9.26-4-13.26,0-4,1-12,1.9-9.3,2-13.65,3-5.35-2-11.35-6-6-9-10-4-4-4-10,1-4-1-12-2-12-4-17a13,13,0,0,0-12-8c-5,0-7,8-8-2s-4-7-1-14,4.07-9.93,4-9.46,7.15,2.49-.94-4-8.1-6.52-10.1-10.52,0-4-2-8-1-8-3-8,3-2-4,0-6-7-9,2-1.09,12.27-4.54,14.14S620,190.52,611,193.52s-8,2-12,4-10.77-.29-13.39.36.39-4.36-9.61,1.64-8,3-13,8-8,5-11,10-6,7-12,4-11-4-12-7-5.07-3.67-9-5.84-3-4.16-9-2.16-8.09,3.68-16.54,6.84S480,227.52,477,230.52,462,227.52,457.41,232.63Z"/><path class="cls-3" d="M373,499.52c-6,0-8,0-13,2s-7.44,6.47-11.22-.76S341,483.52,344,481.52s-.44-1.29,4.78-7.64S355,463.52,358,458.52s2-6,4-16-2-15,5-19,8-7,12-11,0,1,12-9,13-12,19-18,11-9,16-15,3-1,8-9,6-12,11-16,4.53-2.48,10.26-9.74S464,331.52,468,325.52s2-11,4-15,3.58-10.82,5.79-5.41S483,321.52,482,323.52s-3,11-4,12,4,0,4,8v18c0,9,2,10-3,20s-15-6-14,17,5,23,0,33-6,22-10,23-5-4-12,3-11,10-14,14-8,3-13,9-7.85,11.46-11.43,13.73,3.43,2.27-6.57,5.27-13-3-15-4S375,499.52,373,499.52Z"/><path class="cls-3" d="M328,495.52c11.07-14.23,1-17,0-25s-3-6,0-18-1-14,6-19,5-6,11-14,3-11,12-14,15.76-1.9,13.88-9.45-2.77-8.16-7.83-12.35-1.07-3.18-11.56-6.19-4.49-7-16.49-5-13,5-20-3,.69-9.88-14.15-9.94-22.85-.06-22.85-.06-19.41-3.11-19.21-1-1.2,2.64-2,8.85,2.2,10.2,6.2,19.2,8,12,5,21-5,5-5,19-3,13,7,26,16,23,24,26,9,7,14,11S321,504.52,328,495.52Z"/><path class="cls-3" d="M378,369.52c-3.92-5.88-8.46-2-11.23-3.49s-6.77-2.34-8.77-4.92-5-2.59-4-5.59,1-1,1-7-1-6-1-10-4.05-7.8,1-9.4,4-10.6,6-12.6,3-9,6-2-3,13,6,15,12,3,16,6,11,4,15,8,16,3,9,9-8.23,6.5-12.12,10.75S380,372.52,378,369.52Z"/><path class="cls-3" d="M274,338.52c-1.34,2.69-8-1-5-4s2-5,5-6.53,4,.53,9-4.47,1-4,7-9,4.49-7.58,8.75-7.29-1.75,4.29,8.25,1.29,11-3,16-6a28.84,28.84,0,0,1,14.68-4c4.32,0,16.32-4,11.32,3s-9,13-10,15-5,8-4,12,5.31,8.87,1.16,12.44-8.16,3.56-6.16,6.56,0,7-3,5-6-5-7-7-9-2-11-3-3-5-6-2-3,6-6,4-8-5-8-5S275,336.52,274,338.52Z"/><path class="cls-3" d="M382.27,306.64c-8.89-.32-12.27-8.12-12.27-9.12s-1-6,0-6-1-2,6-4,6-3,12-3,8-1,12,0,1,1,8,3,10,4,14,0,5-5,5-9,.87-6.46,4.94-8.23,7.06-5.77,10.06-4.77,5,0,8,2,9,1,11,6,5,5,2,8,0,4-2,7-1,7-6,7-6,0-9-1-6-5-7-1,2,8,4,9,2,0,3,2,1,6-1,6-5-3-5,2-1,7-2,10,.17,2.33-4.92,7.17-8.3,7.45-9.19,4.64,2.11-4.81-2.89-8.81-6-8-10-7-9,2-10,1-8-2-9-5-5-6-5-6A6.53,6.53,0,0,0,382.27,306.64Z"/><path class="cls-3" d="M141.12,209.31c-3.12,1.21-5.12-5.79-10.12.21s-9,4-9,3-1-7,1-8,1-3,5-6,5-3,6-9,1-6,2-9,0-5,3-8-2,0,5-4,8-4,10-10,2-5.9,2-10.45-2-8.55,0-10.55,0-1,3-6,8-3,8-7-4-5,1-5,9,3,13,5,11,2,16,3,11-2,14-2,1-1,7,0,6,1.84,13.51,2.92S243,126.52,248,131.52s9,4,9,8,6.13.39-3.44,5.2-12.56,3.8-15.56,7.8-3,2-5,7,3,7-4,9-7-3-12,2-6,4-7,9,.22,6.36-.39,8.18-2.61,2.82-4.61,4.82-2-3-2,5,3.33,9.91-1.83,8,.83-1-10.17-5-14-9-15-4,0,4-2,7-3,5-6,5-4.09-.83-7.55-1.41-7.45-2.59-9.45-1.59-2,0-3,1-6.75,2.57-6.88,2.79"/><path class="cls-3" d="M224.09,205.78c-2-.79-7.09,1.74-7.09,1.74v-9s-4,0,0-5,3-6,7-6,5.12-1.58,5.06-4.79-5.06-5.21-.06-5.21,5-1,11-3,9-4,10-6,1.63-8.21,2.82-8.1.18-2.9,2.18-3.9-2-1,4-4,6.5-6.45,12.25-8.22,6.75-2.78,9.75-5.78,2.84-7,5.42-7.48,3.58-2.52,5.58-2.52,28-9,28-9,4,0,3-5,0-4,0-11-1-4,4-10,8.92-9.81,9.46-10.9A7.22,7.22,0,0,1,343,78.53c4.05,0,10-2.09,12.54,3s4.51,11,11.51,12,10,2,20,2,16-4,19,6-3,17,3,21,12,12,24,9-5-10,12-12,18-2,25,6,6,7,16,10,14-1,23,3,5.14,3.8,10.57,12.4,13.1,10.19,15.77,13.4-2.28-3.95,6.19,6.12S552,181.52,549,186.52s-2.46,4.94-12.73,6-14.27-2-18.27-2-7-4-14-2-14-1-15,3-3,7-10,8-5-1-21,4-28,14-28,16-5,11-6,13-1,6,0,9,5-1,5,4-12,15-14,15h-4.23c-5.77,0-9.77-4-11.77-2s-10-2-12-1-14,4-14,6-9,7-9,7-11,4-12-7,3-15-3-20-9-9-11-11-4-2-7-7-1-14-9-15-7-6-17-4-15,2-18,4,1,3-9,3-13.13,4.92-19.07-2-6.93-11-9.93-12S227.18,207,224.09,205.78Z"/><path class="cls-3" d="M36,434.57c-11.85-1.78-20-12.05-20-12.05s2-3,3-5,6-5.95,7-10,10-4,10-11-4-5.46,0-16.23,1-13.77,4-15.77,9-1,10-7-1-16,2-22-2-18,4-23,4.27-8,12.63-14,7.37-1,16.37-13,9-8,13-22,2-18,7-22,4-10,11-11,17-4,24,0,12,12,26,8,18-7,24-10,14-5,20-4,8,2,13,7,8-1,20,0,8-7,22,1,5,2,22,5,17,0,21,6,0,1,6,10,12,9,17,15,8,7,4,12-13.11,8.69-22.55,6.85S296,285.52,293,286.52s-1-3-15,6-21,9-19,13,9,6-2,11-14-1-14,9,16,11-3,14-23-1-33,0-30-4-31,1-6,9-12,13-11,3-17,8-17,8-24,19-16,14-19,23-17-2-21,20-8,26-14,31-1,12-11,6S43,435.61,36,434.57Z"/><path class="cls-3" d="M62,588.52c-12.94-3.23-11.17,6.06-15.58-11s-6.59-7.38,0-25.2S52,530.52,58,528.52s13-2,18-9,4-4,6-16-3-6,2-19,2-15,9-22,8-8,12-13,5-12,6-18,.83-7,5.92-12.49S127,412.52,135,408.52s11-4,19-11,6-8,14-14,11-13,19-13,9,0,17-3,12-10,21-9,14-1,15,8,2,11-2,18-6,9-6,19v17c0,6-8-5-7,15s5,17,10,19,3,1,6,8-2,6,0,14,8,8,8,9,2,2,5,1,6-8,10-8,5-2,10,0,7,1,6,6-3,2,0,9,1,6,7,10,9.83-1.58,14.92,1.21,4.08-4.21,7.08,8.79,24.71.31,27.85,7.65,10.09,8.22,3.62,16.29-4.47.06-9.47,12.06-13,14-19,17-12-6-11,7,8,22-7,21-24-6-30-6-7-5-21,3-12,7-20,13-15,1.48-21.48-.76S198,598.52,187,601.52s-26,3-27,6-10,4-14,6-7-2-19-6-20-7-22-9-10-5-15-5-7-6-14-3a21.29,21.29,0,0,1-12.5,1.63S66,589.52,62,588.52Z"/><path class="cls-4" d="M328.6,664.52c-9.52,0-12.11.68-11.44-4s8.75-7.4,4-12.79-6.06-.67-6.06-6.73.67-6.73,2-8.75,2.67-4.09,3.69-4.4a9.3,9.3,0,0,1,5.73-.31c3.37.67,6.06,0,8.08,0s7.41,1.35,12.79-2,14.81-6.73,14.81-7.41,5.39-2.69,10.77-8.07,8.75-4.72,10.77-2.7,9.43-6,8.08-9.42,0,.67-1.35-3.37-3.95-4.39-4.67-2.53-2.73,2.53-2.06-.83-2-1.35,0-4.71.68-6.06,2.7-5.39,2.69-2,4,0,2.7,4,3.37,2a5.77,5.77,0,0,0,0-4.71c-.67-2,.67-4-1.35-5.39s-4.37,6.29-4.54-2.91,1.85-12.57,7.91-11.9,6.17,3.88,13.18,1.6,7.69-.92,13.75-2.94,7.79-4,8.27-5.36,3.11-6-.2-4.07c-4.71,2.7-2-3.36,2-3.36s4.53-2.7,7.32-.68.76,4,2.78,5.39,7.41-2,9.42-2.69,4-.68,4-5.39-2-6.73,0-8.08a18.11,18.11,0,0,0,4.72-5.38c1.34-2,1.34-3.37,4-4.71s2.7-2.7,5.39-3.37,2.69-1.35,4.71,0,4.71,4.71,7.41,6.06,9.65-2.65,13.24-1a11.63,11.63,0,0,1,6.28,6.37c.67,2,6.73,2,9.42,4s6,.65,9.72,4.7,4.13.67,7,7.08.81,3,3.51,12.46,4.71,4,9.42,12.79,12.79,0,7.41,12.11-10.1,10.77-9.43,16.83,4.84,9.1.74,17.68-3.18,11-8,12.48-6.85,2.15-9.55,8.21-.67,6.73-4.71,12.12-6.06,8.08-10.1,11.44-7.4,8.08-11.44,11.45-20.19,6.73-21.54,9.42a32.34,32.34,0,0,0-2.69,7.41c-.68,2.69-.68,2.69-4.72,8.75s-4.09,2.06-6.76,9.11,0,12.43-3.33,14.45-5.39,3.36-7.41-1.35-.67-6.73-2.69-10.1-.67-6.73-2.69-10.77,0-4-6.06-8.07-8-7.44-14.41-10.79-9.15-6-12.52-6-4.71-1.35-8.75-1.35-6.06-2.69-11.44,0-4.71,4-8.75,5.39-2.7,4.71-11.45-4-6.73-9.43-10.09-10.1-6.06-2.69-10.1-2a85.53,85.53,0,0,1-10.77.67Z"/><path class="cls-5" d="M382,662.52c-5.56,0-7.07.4-6.68-2.35s5.11-4.33,2.36-7.47-3.54-.39-3.54-3.93.39-3.93,1.18-5.11,1.56-2.39,2.15-2.57a5.46,5.46,0,0,1,3.35-.18,18.74,18.74,0,0,0,4.71,0c1.18,0,4.33.79,7.47-1.18s8.65-3.93,8.65-4.32,3.14-1.57,6.28-4.72,5.11-2.75,6.29-1.57,5.5-3.53,4.71-5.5a10.14,10.14,0,0,1-.78-2c-.79-2.36-2.31-2.57-2.73-1.48s-1.59,1.48-1.2-.49-1.18-.78,0-2.75.39-3.53,1.57-3.14,1.57-1.18,2.36,0,1.57,2.36,2,1.18a3.3,3.3,0,0,0,0-2.75c-.39-1.18.4-2.36-.78-3.15s-2.55,3.67-2.65-1.7,1.08-7.33,4.61-6.94,3.61,2.26,7.7.93,4.48-.54,8-1.72,4.55-2.33,4.83-3.13,1.82-3.47-.11-2.37c-2.76,1.57-1.18-2,1.17-2s2.65-1.58,4.27-.4.45,2.36,1.63,3.15,4.32-1.18,5.5-1.57,2.36-.4,2.36-3.15-1.18-3.93,0-4.71a10.69,10.69,0,0,0,2.75-3.15c.78-1.18.78-2,2.36-2.75s1.57-1.57,3.14-2,1.57-.79,2.75,0,2.75,2.75,4.32,3.53,5.64-1.54,7.73-.57a6.82,6.82,0,0,1,3.67,3.72c.39,1.18,3.93,1.18,5.5,2.36s3.48.37,5.67,2.74,2.41.39,4.07,4.13.47,1.77,2.05,7.27,2.75,2.36,5.5,7.47,7.46,0,4.32,7.07-5.89,6.29-5.5,9.82,2.83,5.31.43,10.32-1.85,6.43-4.68,7.29-4,1.25-5.57,4.79-.4,3.93-2.76,7.07-3.53,4.72-5.89,6.68-4.32,4.72-6.68,6.68S468,672,467.26,673.52a19.57,19.57,0,0,0-1.58,4.33c-.39,1.57-.39,1.57-2.75,5.11s-2.39,1.2-3.94,5.31,0,7.26-1.95,8.44-3.14,2-4.32-.79-.4-3.93-1.57-5.89-.4-3.93-1.58-6.29,0-2.36-3.53-4.71-4.65-4.35-8.41-6.3-5.35-3.53-7.31-3.53-2.75-.78-5.11-.78-3.53-1.57-6.68,0-2.75,2.35-5.11,3.14-1.57,2.75-6.68-2.36-3.93-5.5-5.89-5.89-3.54-1.57-5.89-1.18a50.12,50.12,0,0,1-6.29.39Z"/><path class="cls-6" d="M421.27,662.52c-2.7,0-3.44.19-3.25-1.14s2.48-2.1,1.15-3.63-1.72-.19-1.72-1.91.19-1.91.57-2.48.76-1.16,1.05-1.25a2.6,2.6,0,0,1,1.62-.09,9.09,9.09,0,0,0,2.29,0,5.57,5.57,0,0,0,3.63-.57c1.53-1,4.2-1.91,4.2-2.1a26.29,26.29,0,0,0,3.06-2.29c1.52-1.53,2.48-1.34,3.05-.77s2.67-1.71,2.29-2.67a4.88,4.88,0,0,1-.38-1c-.38-1.15-1.12-1.25-1.32-.72s-.78.72-.59-.24-.57-.38,0-1.33.19-1.72.77-1.53.76-.57,1.14,0,.76,1.14,1,.57a1.65,1.65,0,0,0,0-1.34c-.2-.57.19-1.14-.39-1.52s-1.24,1.78-1.28-.83.52-3.56,2.24-3.37,1.75,1.1,3.74.45,2.18-.26,3.89-.84,2.22-1.13,2.35-1.52.88-1.68,0-1.15c-1.34.77-.58-.95.57-.95s1.28-.77,2.07-.19.22,1.14.79,1.52,2.1-.57,2.68-.76,1.14-.19,1.14-1.53-.57-1.91,0-2.29a5.07,5.07,0,0,0,1.34-1.53c.38-.57.38-1,1.14-1.33s.77-.77,1.53-1,.76-.38,1.34,0A18.26,18.26,0,0,0,465,623c.76.38,2.74-.75,3.75-.28a3.3,3.3,0,0,1,1.78,1.81c.19.57,1.91.57,2.68,1.14s1.69.19,2.75,1.34,1.17.19,2,2,.23.86,1,3.54,1.34,1.14,2.68,3.63,3.63,0,2.1,3.43-2.87,3.06-2.68,4.77,1.38,2.59.21,5-.9,3.12-2.27,3.54a3.33,3.33,0,0,0-2.71,2.33c-.76,1.72-.19,1.91-1.33,3.43a16.3,16.3,0,0,1-2.87,3.25c-1.14.95-2.1,2.29-3.24,3.25s-5.73,1.9-6.11,2.67a8.75,8.75,0,0,0-.77,2.1c-.19.76-.19.76-1.33,2.48s-1.17.59-1.92,2.58,0,3.53-.95,4.1-1.53,1-2.1-.38-.19-1.91-.76-2.86-.19-1.91-.77-3.06,0-1.14-1.71-2.29-2.26-2.11-4.09-3.06-2.6-1.71-3.55-1.71-1.34-.38-2.48-.38-1.72-.77-3.25,0-1.33,1.14-2.48,1.52-.76,1.34-3.25-1.14-1.91-2.67-2.86-2.87-1.72-.76-2.86-.57a24.37,24.37,0,0,1-3.06.19Z"/><path class="cls-4" d="M82.59,565.83c-6.65-1.66-5.74,3.12-8-5.64s-3.38-3.8,0-13,2.87-11.22,6-12.25,6.68-1,9.25-4.63,2.06-2.05,3.09-8.22-1.55-3.09,1-9.77,1-7.72,4.63-11.31a62.33,62.33,0,0,0,6.17-6.69c2.06-2.57,2.57-6.17,3.09-9.25s.42-3.6,3-6.43,5.18-3.34,9.3-5.4,5.65-2.06,9.77-5.66,3.08-4.11,7.19-7.19,5.66-6.69,9.77-6.69,4.63,0,8.74-1.54,6.17-5.14,10.8-4.63,7.2-.51,7.71,4.12,1,5.65-1,9.25-3.08,4.63-3.08,9.77v8.74c0,3.09-4.11-2.57-3.6,7.71s2.57,8.74,5.14,9.77,1.54.52,3.09,4.12-1,3.08,0,7.19,4.11,4.12,4.11,4.63,1,1,2.57.52,3.09-4.12,5.14-4.12,2.57-1,5.14,0,3.6.52,3.09,3.09-1.54,1,0,4.62.51,3.09,3.6,5.15,5.05-.82,7.67.62,2.1-2.17,3.64,4.52,12.7.15,14.32,3.93,5.19,4.23,1.86,8.37-2.3,0-4.87,6.21-6.68,7.2-9.77,8.74-6.17-3.09-5.65,3.6,4.11,11.31-3.6,10.8-12.34-3.09-15.43-3.09-3.6-2.57-10.79,1.54-6.17,3.6-10.29,6.69-7.69.75-11-.4-1.81-2.69-7.47-1.15-13.37,1.55-13.88,3.09-5.14,2.06-7.2,3.08-3.6-1-9.77-3.08S105.73,572,104.7,571,99.56,568.4,97,568.4s-3.6-3.08-7.2-1.54a11,11,0,0,1-6.43.84S84.65,566.34,82.59,565.83Z"/><path class="cls-5" d="M98.49,554.82c-3.61-.9-3.12,1.7-4.35-3.06s-1.84-2.07,0-7,1.56-6.1,3.24-6.65,3.63-.56,5-2.52,1.11-1.12,1.67-4.47-.84-1.68.56-5.31.56-4.19,2.52-6.15a33.63,33.63,0,0,0,3.35-3.63c1.12-1.4,1.4-3.35,1.68-5a4.74,4.74,0,0,1,1.65-3.49c1.42-1.54,2.82-1.82,5-2.94s3.08-1.12,5.31-3.07,1.68-2.24,3.92-3.91,3.07-3.64,5.3-3.64a9.56,9.56,0,0,0,4.76-.84c2.23-.83,3.35-2.79,5.86-2.51s3.92-.28,4.2,2.24.55,3.07-.56,5-1.68,2.51-1.68,5.3v4.76c0,1.67-2.24-1.4-2,4.19s1.4,4.75,2.8,5.31.84.28,1.68,2.23-.56,1.68,0,3.91,2.23,2.24,2.23,2.52.56.56,1.4.28,1.67-2.24,2.79-2.24,1.4-.56,2.8,0,1.95.28,1.67,1.68-.83.56,0,2.52.28,1.67,2,2.79,2.75-.44,4.17.34,1.14-1.18,2,2.45,6.9.09,7.78,2.14,2.82,2.3,1,4.55-1.25,0-2.64,3.37-3.64,3.92-5.31,4.75-3.36-1.67-3.08,2,2.24,6.15-1.95,5.87-6.71-1.68-8.39-1.68-1.95-1.39-5.87.84a33.14,33.14,0,0,0-5.59,3.63c-2.23,1.68-4.17.42-6-.21s-1-1.46-4.06-.62-7.26.83-7.54,1.67-2.79,1.12-3.91,1.68-2-.56-5.31-1.68-5.59-2-6.15-2.51a8.22,8.22,0,0,0-4.19-1.4c-1.4,0-2-1.68-3.91-.84a6,6,0,0,1-3.5.46S99.61,555.1,98.49,554.82Z"/><path class="cls-4" d="M320.48,441.61c5.15-6.62.46-7.91,0-11.63s-1.4-2.79,0-8.37-.47-6.52,2.79-8.84,2.32-2.79,5.11-6.52,1.4-5.11,5.59-6.51,7.33-.89,6.45-4.4-1.28-3.79-3.64-5.74-.49-1.48-5.38-2.88-2.08-3.26-7.67-2.33-6.05,2.32-9.3-1.4.32-4.6-6.59-4.62-10.63,0-10.63,0-9-1.45-8.93-.49-.56,1.23-.93,4.12,1,4.74,2.89,8.93,3.72,5.58,2.32,9.77-2.32,2.33-2.32,8.84-1.4,6.05,3.25,12.1,7.45,10.7,11.17,12.09,4.19,3.26,6.51,5.12S317.22,445.8,320.48,441.61Z"/><path class="cls-4" d="M390.87,456.46c-3.3,0-4.39,0-7.14,1.09s-4.09,3.56-6.17-.42-4.27-9.47-2.62-10.57-.25-.71,2.62-4.2,3.42-5.69,5.07-8.43,1.1-3.3,2.2-8.8-1.1-8.24,2.74-10.44,4.4-3.84,6.6-6,0,.55,6.59-4.95a96.38,96.38,0,0,0,10.44-9.89c3.3-3.3,6.05-4.95,8.8-8.24s1.64-.55,4.39-4.95,3.3-6.59,6.05-8.79,2.48-1.36,5.64-5.35,4.8-2.34,7-5.64,1.09-6,2.19-8.24,2-6,3.19-3,2.86,9,2.31,10.12-1.65,6.05-2.2,6.59,2.2,0,2.2,4.4v9.89c0,4.95,1.1,5.5-1.65,11s-8.24-3.29-7.69,9.34,2.74,12.64,0,18.14-3.3,12.09-5.5,12.64-2.75-2.2-6.59,1.65-6,5.49-7.7,7.69-4.39,1.65-7.14,4.94-4.31,6.3-6.28,7.55,1.88,1.25-3.61,2.9-7.14-1.65-8.24-2.2S392,456.46,390.87,456.46Z"/><path class="cls-5" d="M404.13,432.75a8.32,8.32,0,0,0-3.92.6c-1.5.6-2.24,1.95-3.38-.23s-2.35-5.2-1.44-5.8-.13-.39,1.44-2.31a26.21,26.21,0,0,0,2.78-4.63c.91-1.5.6-1.8,1.21-4.82s-.61-4.52,1.5-5.73,2.42-2.11,3.62-3.32,0,.31,3.62-2.71a54.36,54.36,0,0,0,5.73-5.43c1.81-1.81,3.32-2.71,4.82-4.52s.91-.3,2.42-2.71,1.81-3.62,3.31-4.83a10.61,10.61,0,0,0,3.1-2.94c1.73-2.18,2.63-1.28,3.84-3.09s.6-3.32,1.2-4.52,1.08-3.26,1.75-1.63,1.57,4.94,1.27,5.55-.9,3.31-1.21,3.62,1.21,0,1.21,2.41v5.43c0,2.71.6,3-.9,6s-4.53-1.81-4.23,5.12,1.51,6.94,0,9.95-1.81,6.64-3,6.94-1.51-1.21-3.62.9A54,54,0,0,0,421,424.3c-.91,1.21-2.41.91-3.92,2.72s-2.37,3.45-3.45,4.14,1,.68-2,1.59-3.92-.91-4.52-1.21S404.74,432.75,404.13,432.75Z"/><path class="cls-4" d="M78.15,374.75c-7.44-1.11-12.55-7.56-12.55-7.56s1.25-1.89,1.88-3.15,3.76-3.74,4.39-6.27,6.3-2.53,6.3-6.93-2.52-3.43,0-10.2.62-8.65,2.51-9.91,5.66-.63,6.29-4.4-.63-10.05,1.25-13.83S87,301.19,90.74,298.05s2.68-5,7.94-8.8,4.63-.63,10.28-8.17,5.66-5,8.17-13.83,1.26-11.31,4.4-13.83,2.52-6.28,6.92-6.91,10.68-2.51,15.08,0,7.54,7.54,16.34,5,11.32-4.4,15.09-6.29,8.8-3.14,12.57-2.51,5,1.26,8.17,4.4,5-.63,12.57,0,5-4.4,13.83.63,3.14,1.25,13.82,3.14,10.69,0,13.2,3.77,0,.63,3.77,6.29,7.55,5.65,10.69,9.42,5,4.4,2.51,7.55-8.24,5.46-14.17,4.3-10.34-1.16-12.22-.53-.63-1.89-9.43,3.77-13.2,5.65-11.94,8.17,5.65,3.77-1.26,6.91-8.8-.63-8.8,5.66,10.06,6.91-1.89,8.8-14.45-.63-20.74,0-18.85-2.52-19.48.63-3.77,5.65-7.54,8.17-6.92,1.88-10.69,5-10.68,5-15.08,11.94-10.06,8.8-11.94,14.45-10.69-1.25-13.2,12.57-5,16.35-8.8,19.49-.63,7.54-6.92,3.77S82.54,375.41,78.15,374.75Z"/><path class="cls-5" d="M103.53,327.29A11.64,11.64,0,0,1,97,323.36s.65-1,1-1.64,2-1.94,2.28-3.26,3.28-1.31,3.28-3.6-1.31-1.78,0-5.3.32-4.5,1.3-5.16,2.94-.32,3.27-2.28-.33-5.23.65-7.19-.65-5.89,1.31-7.52,1.4-2.61,4.13-4.57,2.41-.33,5.35-4.25,2.94-2.62,4.25-7.19.65-5.89,2.28-7.19,1.31-3.27,3.6-3.6,5.56-1.3,7.84,0,3.92,3.92,8.5,2.62a32.78,32.78,0,0,0,7.84-3.27,11.78,11.78,0,0,1,6.54-1.31,6.22,6.22,0,0,1,4.25,2.29c1.63,1.63,2.61-.33,6.53,0s2.62-2.29,7.19.33,1.64.65,7.19,1.63,5.56,0,6.86,2,0,.33,2,3.27,3.92,2.94,5.55,4.9,2.62,2.29,1.31,3.92a7.87,7.87,0,0,1-7.37,2.24c-3.09-.6-5.38-.6-6.36-.28s-.32-1-4.9,2-6.86,2.94-6.21,4.25,2.94,2-.65,3.6-4.58-.33-4.58,2.94,5.23,3.59-1,4.57-7.51-.32-10.78,0-9.81-1.3-10.13.33-2,2.94-3.92,4.25-3.6,1-5.56,2.61-5.56,2.62-7.84,6.21-5.23,4.58-6.21,7.52-5.56-.66-6.86,6.53-2.62,8.5-4.58,10.13-.33,3.93-3.59,2S105.81,327.63,103.53,327.29Z"/><path class="cls-4" d="M282.22,194.93c-1.16-.48-4.22,1-4.22,1V190.6s-2.38,0,0-3,1.79-3.58,4.17-3.58,3.05-.94,3-2.85-3-3.1,0-3.1,3-.6,6.55-1.79,5.35-2.38,5.95-3.57,1-4.89,1.68-4.83.11-1.72,1.3-2.32-1.19-.59,2.38-2.38,3.87-3.84,7.29-4.89,4-1.66,5.81-3.44,1.69-4.15,3.23-4.46,2.13-1.5,3.32-1.5,16.67-5.36,16.67-5.36,2.38,0,1.79-3,0-2.38,0-6.55-.6-2.38,2.38-5.95,5.31-5.84,5.63-6.49a4.32,4.32,0,0,1,3.87-2.44c2.41,0,6-1.24,7.47,1.76s2.68,6.57,6.85,7.17,5.95,1.19,11.91,1.19,9.53-2.38,11.31,3.57-1.78,10.13,1.79,12.51,7.15,7.14,14.29,5.36-3-6,7.15-7.15,10.71-1.19,14.88,3.57,3.58,4.17,9.53,6,8.34-.6,13.7,1.79,3.05,2.25,6.29,7.38,7.8,6.07,9.39,8-1.35-2.35,3.69,3.65,6.23,6.6,4.44,9.58-1.46,2.94-7.58,3.55-8.49-1.17-10.87-1.17-4.17-2.38-8.34-1.19-8.34-.6-8.93,1.79-1.79,4.16-6,4.76-3-.6-12.5,2.38-16.68,8.34-16.68,9.53-3,6.55-3.57,7.74a8.28,8.28,0,0,0,0,5.36c.6,1.79,3-.6,3,2.38s-7.15,8.93-8.34,8.93h-2.52c-3.43,0-5.81-2.38-7-1.19s-5.95-1.19-7.14-.59-8.34,2.38-8.34,3.57-5.36,4.17-5.36,4.17-6.55,2.38-7.14-4.17,1.78-8.93-1.79-11.91a64.74,64.74,0,0,1-6.55-6.55c-1.19-1.19-2.38-1.19-4.17-4.17s-.59-8.34-5.36-8.93-4.16-3.57-10.12-2.38-8.93,1.19-10.72,2.38.6,1.79-5.36,1.79-7.82,2.92-11.35-1.22-4.13-6.53-5.92-7.12S284.06,195.67,282.22,194.93Z"/><path class="cls-5" d="M307.85,182.49c-.78-.31-2.85.71-2.85.71v-3.63s-1.61,0,0-2,1.21-2.41,2.82-2.41,2.06-.64,2-1.93-2-2.1,0-2.1,2-.4,4.43-1.2,3.62-1.61,4-2.42.66-3.3,1.13-3.26.08-1.16.88-1.57-.8-.4,1.61-1.61,2.61-2.59,4.93-3.31a7,7,0,0,0,3.92-2.32c1.21-1.21,1.15-2.8,2.18-3s1.44-1,2.25-1,11.27-3.62,11.27-3.62,1.61,0,1.2-2,0-1.61,0-4.42-.4-1.61,1.61-4,3.59-3.94,3.81-4.38a2.89,2.89,0,0,1,2.61-1.65c1.63,0,4-.84,5.05,1.19s1.81,4.44,4.63,4.84a40.86,40.86,0,0,0,8.05.81c4,0,6.44-1.61,7.64,2.41s-1.2,6.84,1.21,8.45,4.83,4.83,9.66,3.62-2-4,4.83-4.82,7.24-.81,10.06,2.41,2.41,2.82,6.43,4,5.64-.4,9.26,1.21,2.07,1.53,4.25,5,5.27,4.1,6.35,5.39-.92-1.59,2.49,2.47,4.21,4.45,3,6.47-1,2-5.12,2.4-5.74-.79-7.35-.79-2.82-1.61-5.63-.81-5.64-.4-6,1.21-1.21,2.81-4,3.22-2-.41-8.45,1.61-11.27,5.63-11.27,6.43-2,4.43-2.41,5.24a5.44,5.44,0,0,0,0,3.62c.4,1.2,2-.41,2,1.61s-4.83,6-5.64,6H383c-2.32,0-3.93-1.61-4.73-.8s-4-.81-4.83-.4-5.64,1.61-5.64,2.41-3.62,2.82-3.62,2.82-4.42,1.61-4.83-2.82,1.21-6-1.2-8a42.83,42.83,0,0,1-4.43-4.42c-.81-.81-1.61-.81-2.82-2.82s-.4-5.63-3.62-6-2.82-2.41-6.84-1.61-6,.81-7.24,1.61.4,1.21-3.62,1.21-5.29,2-7.68-.82-2.79-4.41-4-4.81S309.1,183,307.85,182.49Z"/><path class="cls-6" d="M327.75,172c-.48-.19-1.75.43-1.75.43v-2.22s-1,0,0-1.24.74-1.48,1.73-1.48,1.27-.4,1.25-1.19-1.25-1.29,0-1.29,1.23-.24,2.72-.74,2.22-1,2.47-1.48.41-2,.7-2,0-.71.54-1-.5-.25,1-1,1.61-1.59,3-2a4.39,4.39,0,0,0,2.41-1.43c.74-.74.7-1.73,1.34-1.85s.89-.63,1.38-.63,6.93-2.22,6.93-2.22,1,0,.74-1.24,0-1,0-2.72-.25-1,1-2.47,2.2-2.43,2.34-2.7a1.77,1.77,0,0,1,1.6-1c1,0,2.48-.52,3.1.73s1.12,2.73,2.85,3a26.12,26.12,0,0,0,4.95.49c2.47,0,3.95-1,4.7,1.49s-.75,4.2.74,5.19,3,3,5.93,2.23-1.23-2.48,3-3,4.46-.5,6.19,1.48,1.48,1.73,3.95,2.48,3.47-.25,5.69.74,1.27.94,2.62,3.06,3.24,2.52,3.9,3.32-.57-1,1.53,1.51,2.59,2.74,1.85,4-.61,1.22-3.15,1.48-3.53-.49-4.52-.49-1.73-1-3.46-.5-3.47-.24-3.71.75-.75,1.73-2.48,2a14.87,14.87,0,0,0-5.19,1c-4,1.24-6.93,3.47-6.93,4a18.46,18.46,0,0,1-1.48,3.22,3.36,3.36,0,0,0,0,2.22c.25.75,1.24-.24,1.24,1s-3,3.71-3.47,3.71h-1c-1.43,0-2.42-1-2.91-.49s-2.48-.5-3-.25-3.47,1-3.47,1.48-2.22,1.74-2.22,1.74-2.72,1-3-1.74.74-3.71-.74-4.94a26.31,26.31,0,0,1-2.72-2.72c-.5-.5-1-.5-1.73-1.73s-.25-3.47-2.23-3.71-1.73-1.49-4.2-1-3.71.49-4.46,1,.25.74-2.22.74-3.25,1.21-4.72-.51-1.71-2.71-2.46-2.95S328.52,172.29,327.75,172Z"/><path class="cls-4" d="M510.37,241.7a12.17,12.17,0,0,1-7.51,3.57s-2.43,4.24,0,4.84,4.73-.11,7.51,1.76,6.12,5.1,7.48,6.21,6.21.51,7.42,2.33,4.84,4.85,4.24,6.66,0-.6,0,3,4.24,3.64,4.84,6.06-1.81,4.24,1.22,5.45,3.31,1.71,6.8.86A57.9,57.9,0,0,1,555.08,281c4.11,0,6.53.62,9-1.2a16.73,16.73,0,0,1,4.24-2.42c1.21-.6,1.21-.6,4.24-1.21s7.87,1.82,9.08,3,.61,1.82,3,2.42,8.48,1.21,11.51,2.43,4.24-3.64,7.27,0,1.37,6,2.81,6.31,1.52.35,7.23,3.68,8.36,7.87,13.4,8.33,8.3-3.59,10.3-1.27.79,6,2.6,7.78,1.82,3,7.27,5.45,4.24,7.88,7.27,3.64,3.64-3,1.82-7.88-1.2-1.5-2.42-5.9-2.43-5.61-2.43-8a41.09,41.09,0,0,1,.61-7.27c.6-4.84,1.15-5.64,1.18-8.27s1.85-3.24-1.18-6.87-3.64-3.64-5.45-6.06-2.43-2.42-2.43-6.06.61-2.42-.6-7.27-1.21-7.27-2.42-10.29a7.88,7.88,0,0,0-7.27-4.85c-3,0-4.24,4.85-4.85-1.21s-2.42-4.24-.61-8.48,2.47-6,2.45-5.74,4.34,1.52-.57-2.43-4.9-3.95-6.12-6.37,0-2.42-1.21-4.85-.6-4.84-1.81-4.84,1.81-1.21-2.43,0-3.63-4.24-5.45,1.21-.66,7.43-2.75,8.56-1.49,1.13-6.94,2.95-4.85,1.21-7.27,2.42-6.53-.17-8.11.22.24-2.64-5.82,1-4.85,1.82-7.88,4.85-4.84,3-6.66,6.06S564,236.79,560.4,235s-6.66-2.42-7.27-4.24-3.07-2.23-5.47-3.54-1.8-2.52-5.43-1.31-4.9,2.23-10,4.15-8.15,8.57-10,10.39S513.15,238.6,510.37,241.7Z"/><path class="cls-5" d="M558.26,248.13a5.81,5.81,0,0,1-3.61,1.71s-1.16,2,0,2.33,2.27,0,3.61.85a45.83,45.83,0,0,1,3.59,3c.66.54,3,.25,3.57,1.12s2.33,2.33,2,3.2,0-.29,0,1.46,2,1.74,2.32,2.91-.87,2,.59,2.62,1.59.82,3.27.41a27.88,27.88,0,0,1,6.1-.71c2,0,3.14.3,4.31-.58a7.94,7.94,0,0,1,2-1.16,5.88,5.88,0,0,1,2-.58c1.46-.29,3.78.87,4.37,1.45s.29.88,1.45,1.17a47,47,0,0,1,5.53,1.16c1.46.58,2-1.75,3.49,0s.67,2.87,1.35,3,.74.16,3.48,1.76,4,3.79,6.44,4,4-1.72,4.95-.6.37,2.86,1.25,3.73a7.3,7.3,0,0,0,3.49,2.62c2.62,1.17,2,3.79,3.49,1.75s1.75-1.45.88-3.78-.58-.73-1.16-2.84-1.17-2.69-1.17-3.86a19.94,19.94,0,0,1,.29-3.49c.29-2.33.55-2.71.57-4s.88-1.56-.57-3.31-1.75-1.74-2.62-2.91-1.16-1.16-1.16-2.91.29-1.16-.3-3.49a42.77,42.77,0,0,0-1.16-5,3.79,3.79,0,0,0-3.49-2.33c-1.46,0-2,2.33-2.33-.58s-1.17-2-.29-4.07,1.18-2.89,1.17-2.76,2.09.73-.27-1.17-2.36-1.89-2.94-3.06,0-1.16-.58-2.33-.29-2.33-.87-2.33.87-.58-1.17,0-1.75-2-2.62.59-.32,3.57-1.32,4.11a12.38,12.38,0,0,1-3.34,1.42c-2.61.87-2.32.58-3.49,1.16s-3.13-.08-3.89.1.11-1.26-2.8.48-2.33.88-3.79,2.33-2.32,1.46-3.2,2.91-1.74,2-3.49,1.17-3.2-1.17-3.49-2-1.48-1.07-2.63-1.7-.87-1.21-2.61-.63-2.36,1.07-4.82,2-3.91,4.12-4.79,5S559.6,246.64,558.26,248.13Z"/><path class="cls-4" d="M538,437.45c-8.27-1.66-8.68,1.52-8.68,1.52l-.26-11.21s6-3.73,7.45-3.73,4.48,0,5.22-5.22,2.24-6.71,0-8.94-6.4-4.47-5.43-6.71-4.26-3,1.7-8.94,7.46-4.48,7.46-8.2-.75-8.95-3.73-9.69-3.27-2.65-3.13-6.17.89.2.15-7.25-5.22-8.94,0-12.67,8.94-6,8.94-6,1.49,0,11.18,1.49,6.71-4.48,17.15,0,15.2,0,21.39,1.49,8.42-6,13.64,2.23,6.71,8.95,7.45,13.42-13.41,3,3,7.45,26.75.75,27.17,1.49,6.38-6,10.1,2.24-6,6.71,6,11.18,19.38,1.49,26.08,6.71,10.44,8.2,14.17,11.18,8.94,3,3.72,10.43-6.71,9.69-11.92,17.15-8.95,8.2-8.95,14.91.58,10.24-5.3,17.79-8.26,8.94-10.42,13.46-.68,9-5.89,15.7S652.67,501,648.63,505s-7,13.7-10,15.19-6.71,5.22-12.67,3.73-7.64.17-7.64.17-6.88,2-4.09-2.45A63.25,63.25,0,0,0,620,510.49c.75-2.23.75-6-1.49-6.71s-3.72-.74-5.21-1.49-7.75,4.63-6.86-4-.6-9.39.15-13.12-6-12.67-6-12.67-1.49,0-2.23-3a25.9,25.9,0,0,0-5.22-8.95c-1.49-1.49-8.94-8.2-10.43-8.94a29,29,0,0,0-6.71-3c-3-.75-3.73-8.2-10.44-3s-4.29,10.07-8.11,4.29a29.75,29.75,0,0,1-4.56-10.26s-3-6-4.47-5.21S541.73,438.19,538,437.45Z"/><path class="cls-5" d="M572.15,440.48c-5.73-1.15-6,1.06-6,1.06l-.18-7.78s4.14-2.58,5.17-2.58,3.1,0,3.62-3.62,1.55-4.65,0-6.2-4.44-3.1-3.77-4.65-3-2.06,1.18-6.2,5.17-3.1,5.17-5.68-.52-6.2-2.58-6.72-2.27-1.84-2.17-4.28.62.15.1-5-3.62-6.2,0-8.78,6.2-4.14,6.2-4.14,1,0,7.75,1,4.65-3.1,11.88,0,10.55,0,14.83,1,5.84-4.13,9.46,1.55,4.65,6.2,5.17,9.3-9.31,2.07,2.06,5.17,18.54.51,18.83,1,4.42-4.13,7,1.55-4.14,4.65,4.13,7.75,13.43,1,18.08,4.65,7.24,5.69,9.82,7.75,6.2,2.07,2.58,7.24-4.65,6.71-8.26,11.88-6.2,5.68-6.2,10.33.4,7.1-3.68,12.34-5.72,6.2-7.22,9.33-.47,6.24-4.09,10.89-9.38,5.8-12.18,8.58-4.87,9.5-6.93,10.53-4.65,3.62-8.79,2.59-5.29.11-5.29.11-4.77,1.38-2.84-1.69a44.35,44.35,0,0,0,4-7.72c.52-1.55.52-4.14-1-4.65a32,32,0,0,1-3.62-1c-1-.51-5.37,3.21-4.75-2.78s-.42-6.52.1-9.1-4.14-8.79-4.14-8.79-1,0-1.55-2.06a17.75,17.75,0,0,0-3.61-6.2c-1-1-6.2-5.69-7.24-6.2a20.1,20.1,0,0,0-4.65-2.07c-2.06-.52-2.58-5.68-7.23-2.07s-3,7-5.62,3a20.36,20.36,0,0,1-3.16-7.11s-2.07-4.13-3.1-3.62S574.74,441,572.15,440.48Z"/><path class="cls-6" d="M601.71,444.43c-3.82-.76-4,.7-4,.7l-.12-5.18s2.75-1.72,3.44-1.72,2.07,0,2.41-2.4,1-3.1,0-4.13-2.95-2.07-2.51-3.1-2-1.38.79-4.13,3.44-2.07,3.44-3.79-.34-4.13-1.72-4.47-1.51-1.22-1.44-2.85.41.1.06-3.34-2.4-4.13,0-5.85,4.13-2.76,4.13-2.76.69,0,5.17.69,3.09-2.06,7.91,0,7,0,9.88.69,3.89-2.75,6.3,1,3.09,4.13,3.44,6.2-6.2,1.37,1.37,3.44,12.35.34,12.54.68,3-2.75,4.67,1-2.75,3.09,2.75,5.16,8.95.69,12,3.1,4.82,3.78,6.54,5.16,4.13,1.38,1.72,4.82-3.1,4.47-5.51,7.91-4.13,3.79-4.13,6.88.27,4.73-2.45,8.22-3.81,4.13-4.81,6.22-.31,4.15-2.72,7.24-6.25,3.87-8.11,5.72-3.25,6.33-4.62,7-3.1,2.41-5.85,1.72-3.53.08-3.53.08-3.17.92-1.89-1.13a28.63,28.63,0,0,0,2.66-5.15c.35-1,.35-2.75-.68-3.09a23.92,23.92,0,0,1-2.41-.69c-.69-.35-3.58,2.14-3.17-1.86s-.27-4.34.07-6.06-2.75-5.85-2.75-5.85-.69,0-1-1.37a12.11,12.11,0,0,0-2.41-4.13,50.54,50.54,0,0,0-4.82-4.13,13,13,0,0,0-3.1-1.38c-1.38-.34-1.72-3.78-4.82-1.38s-2,4.66-3.74,2a13.76,13.76,0,0,1-2.11-4.74s-1.37-2.75-2.06-2.41S603.43,444.77,601.71,444.43Z"/><path class="cls-7" d="M630.63,451.78c-1.55-.31-1.63.29-1.63.29l0-2.1a6.45,6.45,0,0,1,1.4-.7c.28,0,.84,0,1-1s.42-1.25,0-1.67-1.19-.84-1-1.26-.8-.56.32-1.67,1.39-.84,1.39-1.54-.14-1.67-.7-1.81-.61-.5-.58-1.16.17,0,0-1.36-1-1.67,0-2.37,1.67-1.11,1.67-1.11.28,0,2.09.27,1.26-.83,3.21,0,2.85,0,4,.28,1.58-1.11,2.55.42,1.26,1.68,1.4,2.51-2.51.56.56,1.4a13.08,13.08,0,0,0,5.08.28c.08.14,1.2-1.12,1.9.42s-1.12,1.25,1.11,2.09,3.63.28,4.89,1.26,2,1.53,2.65,2.09,1.67.56.7,2-1.26,1.81-2.24,3.21-1.67,1.53-1.67,2.79a4.15,4.15,0,0,1-1,3.33,15.42,15.42,0,0,0-2,2.52c-.41.85-.13,1.68-1.11,2.94s-2.53,1.57-3.29,2.32-1.31,2.56-1.87,2.84a3,3,0,0,1-2.37.7c-1.12-.28-1.43,0-1.43,0s-1.29.38-.77-.45a12,12,0,0,0,1.08-2.09c.14-.42.14-1.12-.28-1.26a8.92,8.92,0,0,1-1-.28c-.28-.14-1.45.87-1.28-.75s-.11-1.76,0-2.46-1.12-2.37-1.12-2.37-.28,0-.42-.56a4.79,4.79,0,0,0-1-1.67,19.62,19.62,0,0,0-2-1.68,5.49,5.49,0,0,0-1.26-.56c-.55-.13-.69-1.53-2-.55s-.8,1.88-1.52.8a5.55,5.55,0,0,1-.85-1.92s-.56-1.12-.84-1A3.61,3.61,0,0,1,630.63,451.78Z"/><path class="cls-7" d="M343.81,162.28c-.22-.09-.81.2-.81.2v-1s-.46,0,0-.57.34-.69.8-.69.58-.18.57-.54-.57-.6,0-.6.57-.11,1.25-.34,1-.45,1.14-.68.19-.94.32-.93,0-.33.25-.44-.23-.11.46-.46.74-.73,1.39-.93a2,2,0,0,0,1.11-.66c.35-.34.33-.79.62-.85s.41-.29.64-.29,3.19-1,3.19-1,.45,0,.34-.57,0-.45,0-1.25-.11-.46.46-1.14,1-1.12,1.07-1.24a.83.83,0,0,1,.74-.47c.46,0,1.15-.24,1.43.34s.52,1.26,1.31,1.37a11.3,11.3,0,0,0,2.28.23c1.14,0,1.83-.46,2.17.68s-.34,1.94.34,2.4,1.37,1.36,2.74,1-.57-1.14,1.36-1.37,2-.22,2.85.69.69.8,1.83,1.14,1.59-.12,2.62.34.58.43,1.2,1.41,1.49,1.16,1.8,1.53-.26-.45.7.7,1.2,1.26.86,1.83-.29.56-1.46.68a7.09,7.09,0,0,1-2.08-.22c-.45,0-.8-.46-1.59-.23s-1.6-.12-1.71.34-.34.8-1.14.91a6.9,6.9,0,0,0-2.4.46,6.61,6.61,0,0,0-3.19,1.82,8.86,8.86,0,0,1-.68,1.48,1.64,1.64,0,0,0,0,1c.11.34.57-.12.57.45s-1.37,1.71-1.6,1.71h-.48c-.66,0-1.11-.45-1.34-.23s-1.14-.22-1.37-.11-1.59.46-1.59.68-1,.8-1,.8-1.25.46-1.37-.8.35-1.7-.34-2.27a12.41,12.41,0,0,1-1.25-1.26c-.23-.23-.46-.23-.8-.8s-.11-1.59-1-1.71-.8-.68-1.94-.45a8.4,8.4,0,0,0-2,.45c-.34.23.11.35-1,.35s-1.5.56-2.17-.24-.79-1.25-1.13-1.36S344.16,162.43,343.81,162.28Z"/><path class="cls-4" d="M404.68,305.8a5.07,5.07,0,0,1-4.69-3.48c0-.39-.38-2.3,0-2.3s-.38-.76,2.3-1.52,2.29-1.15,4.58-1.15,3.06-.38,4.58,0,.38.38,3.06,1.15,3.82,1.52,5.35,0,1.91-1.91,1.91-3.44.33-2.47,1.88-3.14,2.7-2.21,3.84-1.83,1.91,0,3.06.77,3.44.38,4.2,2.29,1.91,1.91.77,3.05,0,1.53-.77,2.68-.38,2.67-2.29,2.67a8.54,8.54,0,0,1-3.44-.38c-1.14-.38-2.29-1.91-2.67-.38a3.37,3.37,0,0,0,1.53,3.44c.76.38.76,0,1.14.76s.38,2.29-.38,2.29-1.91-1.15-1.91.76a9.6,9.6,0,0,1-.76,3.82c-.39,1.15.06.89-1.88,2.74s-3.17,2.85-3.51,1.77.8-1.83-1.11-3.36-2.29-3.06-3.82-2.67-3.43.76-3.82.38-3.05-.77-3.43-1.91a6.23,6.23,0,0,0-1.91-2.29A2.49,2.49,0,0,0,404.68,305.8Z"/></g><path class="cls-8" d="M735,415c0,203-164.54,367.5-367.5,367.5-156.92,0-290.88-98.36-343.58-236.79,61.6,98.37,171,163.79,295.58,163.79C512,709.52,668,553.49,668,361c0-109.92-50.89-208-130.4-271.84C654.93,150.55,735,273.44,735,415Z"/><path class="cls-9" d="M278.93,77.65c24.05-7.8,39.8,23.76,17.52,35.08a487.07,487.07,0,0,0-139.11,106c-41.73,45.75-71.94,96.33-90.63,148.09-8,22.21-44.63,13.58-40.68-9.6,10.14-59.54,39-119.71,86.73-172A388,388,0,0,1,278.93,77.65Z"/><path class="cls-1" d="M178.5,813.14l-.68,0a71.44,71.44,0,0,1-50.58-27,7.5,7.5,0,1,1,11.68-9.41,56.47,56.47,0,0,0,40.24,21.51,7.5,7.5,0,0,1-.66,15Zm-66.19-72.49a7.51,7.51,0,0,1-7.34-6,249.42,249.42,0,0,1-4.59-50q0-2.16,0-4.35a7.49,7.49,0,0,1,7.49-7.4h.1a7.5,7.5,0,0,1,7.41,7.59c0,1.4,0,2.79,0,4.16a234.86,234.86,0,0,0,4.28,46.94,7.49,7.49,0,0,1-5.83,8.86A7.21,7.21,0,0,1,112.31,740.65Zm-.15-105.51a7.55,7.55,0,0,1-7.44-8.54c2.34-16.78,5.64-34.52,9.82-52.74a7.5,7.5,0,1,1,14.62,3.36c-4.08,17.79-7.31,35.1-9.58,51.45A7.52,7.52,0,0,1,112.16,635.14Zm23.36-103.3a7.76,7.76,0,0,1-2.17-.32,7.5,7.5,0,0,1-5-9.35c5-16.57,10.7-33.62,16.93-50.67a7.5,7.5,0,0,1,14.09,5.14c-6.13,16.79-11.74,33.57-16.66,49.87A7.51,7.51,0,0,1,135.52,531.84ZM334.29,160.06a7.49,7.49,0,0,1-5.79-12.26c11.68-14.19,23.57-27.71,35.34-40.19a7.5,7.5,0,0,1,10.91,10.3c-11.54,12.23-23.2,25.49-34.66,39.42A7.5,7.5,0,0,1,334.29,160.06ZM612.84,87.81a7.5,7.5,0,0,1-7.33-6c-3.89-18.84-10.36-34-19.26-45a7.5,7.5,0,1,1,11.68-9.41c10.41,12.91,17.9,30.2,22.27,51.4a7.5,7.5,0,0,1-5.83,8.86A7.23,7.23,0,0,1,612.84,87.81Zm-205.6-4.55a7.5,7.5,0,0,1-5-13.11,435.06,435.06,0,0,1,42.3-33.43A7.5,7.5,0,1,1,453,49.09a418.48,418.48,0,0,0-40.82,32.27A7.48,7.48,0,0,1,407.24,83.26Zm87.84-58.45a7.5,7.5,0,0,1-2.82-14.45c20-8.12,38.6-11.5,55.09-10A7.5,7.5,0,0,1,546,15.28c-14.09-1.27-30.34,1.77-48.11,9A7.57,7.57,0,0,1,495.08,24.81Z"/></g><g id="Capa_7" data-name="Capa 7"><path class="cls-1" d="M137.88,399.39c2.92-6.34,5.93-12.62,8.87-18.93a2.33,2.33,0,0,1,2.8-1.65c10.25,1.17,20.51,2.23,30.76,3.35,1.64.19,2.56-.13,3.24-1.87,5.17-13.24,10.59-26.37,16.14-39.45q8.67-20.49,17.82-40.79c.26-.57.47-1.17.8-2Q167.8,289,117.4,279.34a16.6,16.6,0,0,0,1.71-1.86c4.43-7.14,8.86-14.29,13.5-21.28a3.83,3.83,0,0,1,2.71-1.51q48.8-2.92,97.66-5.43c4.13-.21,8.26-.49,12.4-.58a3.86,3.86,0,0,0,3.24-1.71q19.22-24.36,39.42-47.85a10.63,10.63,0,0,1,4-2.73c5.24-2,10.6-3.83,16-5.69a9.06,9.06,0,0,1,1.3-.24c.07,6.94.16,13.76.16,20.58a4,4,0,0,1-.76,1.9q-14.24,24.67-27.8,49.72a3.44,3.44,0,0,0-.15,3.48q18.07,38.21,35.14,76.85c3.21,7.29,6.34,14.55,9.49,21.74a3.66,3.66,0,0,1-.16,3.6c-3.41,6.26-6.66,12.6-9.92,18.95-.32.62-.66,1.22-1.09,2q-32.58-38.34-65.89-76-28.25,37-54.11,75.54c.62.73,1.1,1.32,1.6,1.88,7.29,8.26,14.54,16.56,21.83,24.81,1.06,1.19,1.09,2,.32,3.47-2.93,5.48-5.7,11.06-8.61,16.91-.54-.55-1-1-1.5-1.53-6-6.66-11.92-13.46-18.16-20.11-1.84-2-4.22-3.31-6.56-5.1-2.39,5.5-4.55,10.51-6.77,15.77l-6-3c2.22-5.33,4.42-10.54,6.75-16a13.87,13.87,0,0,0-2.75-1L139,399.72a4,4,0,0,0-1,.1C138,399.67,137.92,399.53,137.88,399.39Z"/></g></g></svg>